<?xml version="1.0" encoding="UTF-8" standalone="no"?>
<svg width="72px" height="25px" viewBox="0 0 72 25" version="1.1" xmlns="http://www.w3.org/2000/svg" xmlns:xlink="http://www.w3.org/1999/xlink" xmlns:sketch="http://www.bohemiancoding.com/sketch/ns">
    <!-- Generator: Sketch 3.4.2 (15855) - http://www.bohemiancoding.com/sketch -->
    <title>public</title>
    <desc>Created with Sketch.</desc>
    <defs></defs>
    <g id="Page-1" stroke="none" stroke-width="1" fill="none" fill-rule="evenodd" sketch:type="MSPage">
        <g id="public" sketch:type="MSLayerGroup">
            <rect id="Rectangle-3" fill="#B5D9BB" sketch:type="MSShapeGroup" x="0" y="0" width="72" height="25"></rect>
            <path d="M10.7460962,12.3536507 L10.7460962,8.16488746 L11.9042795,8.16488746 C12.599193,8.16488746 13.0946332,8.34504752 13.3906149,8.70537304 C13.6865965,9.06569855 13.8345852,9.59331015 13.8345852,10.2882237 C13.8345852,10.9960059 13.6640765,11.5171832 13.3230542,11.8517712 C12.9820318,12.1863592 12.5348488,12.3536507 11.9814918,12.3536507 L10.7460962,12.3536507 Z M7.96645605,6.1187635 L7.96645605,19.9011457 L10.7460962,19.9011457 L10.7460962,14.3997746 L12.2324315,14.3997746 C12.8887387,14.3997746 13.4871274,14.3161289 14.0276157,14.1488349 C14.568104,13.9815409 15.0281556,13.7306037 15.4077842,13.3960157 C15.7874129,13.0614277 16.0833902,12.6303304 16.2957248,12.1027109 C16.5080595,11.5750914 16.6142253,10.9573998 16.6142253,10.2496175 C16.6142253,9.7348668 16.5498824,9.22977521 16.4211947,8.73432762 C16.292507,8.23888003 16.0801755,7.79813132 15.7841938,7.41206827 C15.4882122,7.02600521 15.0989378,6.71394225 14.6163589,6.47587004 C14.1337801,6.23779782 13.5386085,6.1187635 12.8308262,6.1187635 L7.96645605,6.1187635 Z M20.9598705,6.1187635 L18.1802304,6.1187635 L18.1802304,15.7316855 C18.1802304,16.6582369 18.3024819,17.4110485 18.5469885,17.9901431 C18.7914951,18.5692377 19.1196437,19.0164207 19.5314443,19.3317055 C19.9432449,19.6469903 20.4129479,19.8561047 20.9405674,19.9590548 C21.468187,20.062005 22.0151014,20.1134793 22.5813272,20.1134793 C23.147553,20.1134793 23.6944675,20.0555707 24.222087,19.9397518 C24.7497065,19.8239329 25.2194095,19.5987328 25.6312101,19.2641448 C26.0430107,18.9295568 26.3711594,18.4759395 26.615666,17.9032793 C26.8601726,17.3306191 26.9824241,16.6067618 26.9824241,15.7316855 L26.9824241,6.1187635 L24.202784,6.1187635 L24.202784,15.7316855 C24.202784,16.0791423 24.1802639,16.3976395 24.1352233,16.6871868 C24.0901826,16.9767341 24.0065368,17.2276713 23.8842835,17.440006 C23.7620302,17.6523407 23.5979559,17.8196322 23.3920556,17.9418855 C23.1861553,18.0641388 22.9159152,18.1252645 22.5813272,18.1252645 C22.259608,18.1252645 21.9925851,18.0641388 21.7802504,17.9418855 C21.5679157,17.8196322 21.4006242,17.6523407 21.2783709,17.440006 C21.1561176,17.2276713 21.0724719,16.9767341 21.0274312,16.6871868 C20.9823905,16.3976395 20.9598705,16.0791423 20.9598705,15.7316855 L20.9598705,6.1187635 Z M31.8878579,17.8550217 L31.8878579,13.7048646 L33.0846474,13.7048646 C33.3934979,13.7048646 33.6766065,13.737036 33.9339819,13.8013799 C34.1913573,13.8657237 34.4133402,13.9783238 34.5999373,14.1391834 C34.7865345,14.300043 34.9345231,14.5123745 35.0439076,14.7761842 C35.1532922,15.039994 35.2079836,15.3713598 35.2079836,15.7702916 C35.2079836,16.5681553 35.0020864,17.1150697 34.5902858,17.4110514 C34.1784852,17.7070331 33.638005,17.8550217 32.9688291,17.8550217 L31.8878579,17.8550217 Z M31.8878579,11.774559 L31.8878579,8.16488746 L32.8916169,8.16488746 C33.5865304,8.16488746 34.0948391,8.3000075 34.4165583,8.57025164 C34.7382775,8.84049578 34.8991347,9.3037645 34.8991347,9.96007169 C34.8991347,10.6163789 34.7221918,11.0828647 34.3683007,11.3595433 C34.0144095,11.6362218 33.4514094,11.774559 32.6792832,11.774559 L31.8878579,11.774559 Z M29.1082178,6.1187635 L29.1082178,19.9011457 L33.7988605,19.9011457 C34.6095929,19.9011457 35.2884103,19.7917628 35.8353329,19.5729937 C36.3822556,19.3542247 36.8262215,19.0614646 37.1672438,18.6947047 C37.5082662,18.3279448 37.749552,17.9000646 37.8911084,17.4110514 C38.0326649,16.9220382 38.1034421,16.4072952 38.1034421,15.8668069 C38.1034421,14.9402556 37.878242,14.2003125 37.4278351,13.6469554 C36.9774282,13.0935984 36.3661709,12.7654497 35.5940447,12.6624996 L35.5940447,12.6238935 C36.2889582,12.4308619 36.8101355,12.0673247 37.1575923,11.5332708 C37.505049,10.9992169 37.6787748,10.3590053 37.6787748,9.61261668 C37.6787748,8.95630949 37.5822605,8.40296074 37.389229,7.95255384 C37.1961974,7.50214694 36.9259574,7.14182683 36.5785006,6.87158269 C36.2310439,6.60133855 35.8160323,6.40830992 35.3334535,6.292491 C34.8508747,6.17667209 34.3264802,6.1187635 33.7602544,6.1187635 L29.1082178,6.1187635 Z M40.2099328,19.9011457 L47.9118522,19.9011457 L47.9118522,17.623385 L42.9895729,17.623385 L42.9895729,6.1187635 L40.2099328,6.1187635 L40.2099328,19.9011457 Z M49.6515849,19.9011457 L52.431225,19.9011457 L52.431225,6.1187635 L49.6515849,6.1187635 L49.6515849,19.9011457 Z M60.7532998,10.7708001 L63.5329399,10.7708001 C63.5329399,10.2689181 63.4975513,9.73165506 63.4267731,9.15899486 C63.3559949,8.58633466 63.179052,8.05228878 62.8959391,7.55684119 C62.6128261,7.0613936 62.184946,6.65281633 61.6122858,6.33109711 C61.0396256,6.0093779 60.2578597,5.84852071 59.2669645,5.84852071 C58.2245942,5.84852071 57.3945711,6.02546362 56.7768702,6.37935476 C56.1591693,6.73324589 55.6862492,7.2254689 55.3580956,7.85603856 C55.029942,8.48660822 54.8176105,9.24263703 54.7210947,10.1241477 C54.624579,11.0056583 54.5763218,11.9675843 54.5763218,13.0099546 C54.5763218,14.0651936 54.624579,15.0303368 54.7210947,15.905413 C54.8176105,16.7804893 55.029942,17.533301 55.3580956,18.1638706 C55.6862492,18.7944403 56.1591693,19.2770118 56.7768702,19.6115998 C57.3945711,19.9461878 58.2245942,20.1134793 59.2669645,20.1134793 C60.180647,20.1134793 60.9238073,19.971925 61.4964675,19.6888121 C62.0691277,19.4056991 62.5130935,19.0132076 62.8283784,18.5113256 C63.1436632,18.0094436 63.3592118,17.4239235 63.4750307,16.7547475 C63.5908497,16.0855715 63.6487582,15.3777999 63.6487582,14.6314113 L60.8691181,14.6314113 C60.8691181,15.3777999 60.8240781,15.9794058 60.7339968,16.4362471 C60.6439154,16.8930884 60.5216639,17.2469742 60.3672387,17.4979152 C60.2128135,17.7488562 60.0294363,17.9161476 59.8171016,17.9997946 C59.6047669,18.0834416 59.3763497,18.1252645 59.1318431,18.1252645 C58.8358614,18.1252645 58.5752728,18.0641388 58.3500693,17.9418855 C58.1248659,17.8196322 57.9382715,17.5815635 57.7902807,17.2276724 C57.6422898,16.8737812 57.5329069,16.3751239 57.4621287,15.7316855 C57.3913505,15.0882471 57.3559619,14.2453554 57.3559619,13.2029851 C57.3559619,12.2249587 57.3816991,11.3981528 57.4331741,10.7225424 C57.4846492,10.0469321 57.5747292,9.50001761 57.7034169,9.08178263 C57.8321046,8.66354766 58.0090475,8.36113613 58.234251,8.17453899 C58.4594544,7.98794184 58.7457802,7.89464467 59.093237,7.89464467 C59.7238066,7.89464467 60.158121,8.12306189 60.3961933,8.57990317 C60.6342655,9.03674445 60.7532998,9.76703611 60.7532998,10.7708001 L60.7532998,10.7708001 Z" id="PUBLIC" fill="#FFFFFF" sketch:type="MSShapeGroup"></path>
        </g>
    </g>
</svg>