<?xml version="1.0" encoding="UTF-8" standalone="no"?>
<svg width="75px" height="56px" viewBox="0 0 75 56" version="1.1" xmlns="http://www.w3.org/2000/svg" xmlns:xlink="http://www.w3.org/1999/xlink" xmlns:sketch="http://www.bohemiancoding.com/sketch/ns">
    <!-- Generator: Sketch 3.4.2 (15855) - http://www.bohemiancoding.com/sketch -->
    <title>public</title>
    <desc>Created with Sketch.</desc>
    <defs></defs>
    <g id="Page-1" stroke="none" stroke-width="1" fill="none" fill-rule="evenodd" sketch:type="MSPage">
        <g id="public" sketch:type="MSLayerGroup" transform="translate(0.000000, 26.000000)">
            <rect id="Rectangle-3" fill="#75C05F" sketch:type="MSShapeGroup" x="0" y="0" width="75" height="30"></rect>
            <path d="M8.64312954,14.2803543 L8.64312954,9.47533522 L9.97170624,9.47533522 C10.7688562,9.47533522 11.3371861,9.68200064 11.676713,10.0953377 C12.0162399,10.5086747 12.1860007,11.1139092 12.1860007,11.9110592 C12.1860007,12.7229712 11.9904067,13.3208248 11.5992127,13.7046377 C11.2080187,14.0884507 10.6950456,14.2803543 10.060278,14.2803543 L8.64312954,14.2803543 Z M5.45454545,7.12818305 L5.45454545,22.9382458 L8.64312954,22.9382458 L8.64312954,16.6275065 L10.3481363,16.6275065 C11.1010002,16.6275065 11.7874246,16.5315547 12.4074302,16.3396482 C13.0274357,16.1477417 13.5551707,15.8598863 13.9906508,15.4760733 C14.4261309,15.0922604 14.7656526,14.5977395 15.0092262,13.992496 C15.2527998,13.3872525 15.3745848,12.6786853 15.3745848,11.8667733 C15.3745848,11.2762918 15.3007757,10.6968905 15.1531554,10.1285521 C15.005535,9.56021367 14.761965,9.05462148 14.4224382,8.61176036 C14.0829113,8.16889925 13.6363664,7.81092522 13.08279,7.53782753 C12.5292136,7.26472984 11.8464796,7.12818305 11.0345676,7.12818305 L5.45454545,7.12818305 Z M20.3595666,7.12818305 L17.1709825,7.12818305 L17.1709825,18.1553697 C17.1709825,19.2182363 17.3112198,20.0818026 17.5916985,20.7460942 C17.8721772,21.4103859 18.2486035,21.923359 18.7209887,22.2850289 C19.1933739,22.6466988 19.7321801,22.8865783 20.3374236,23.0046746 C20.9426672,23.1227709 21.5700443,23.1818182 22.219574,23.1818182 C22.8691036,23.1818182 23.4964808,23.11539 24.1017243,22.9825317 C24.7069678,22.8496733 25.2457741,22.5913416 25.7181593,22.2075286 C26.1905445,21.8237156 26.5669708,21.3033616 26.8474495,20.646451 C27.1279282,19.9895403 27.2681654,19.1591882 27.2681654,18.1553697 L27.2681654,7.12818305 L24.0795814,7.12818305 L24.0795814,18.1553697 C24.0795814,18.5539447 24.0537482,18.9192996 24.002081,19.2514454 C23.9504139,19.5835913 23.8544621,19.8714467 23.7142228,20.1150203 C23.5739834,20.3585939 23.3857703,20.5504975 23.1495777,20.6907369 C22.9133851,20.8309762 22.6033869,20.9010948 22.219574,20.9010948 C21.850523,20.9010948 21.5442154,20.8309762 21.3006418,20.6907369 C21.0570681,20.5504975 20.8651645,20.3585939 20.7249252,20.1150203 C20.5846858,19.8714467 20.488734,19.5835913 20.4370669,19.2514454 C20.3853998,18.9192996 20.3595666,18.5539447 20.3595666,18.1553697 L20.3595666,7.12818305 Z M32.8952926,20.5910936 L32.8952926,15.8303604 L34.2681552,15.8303604 C34.6224441,15.8303604 34.947204,15.867265 35.2424448,15.9410752 C35.5376855,16.0148853 35.7923268,16.1440512 36.0063764,16.3285767 C36.2204259,16.5131022 36.3901868,16.7566721 36.5156641,17.0592939 C36.6411414,17.3619156 36.7038792,17.7420324 36.7038792,18.1996556 C36.7038792,19.1149019 36.4676901,19.742279 35.9953049,20.0818059 C35.5229197,20.4213327 34.9029235,20.5910936 34.1352975,20.5910936 L32.8952926,20.5910936 Z M32.8952926,13.6160659 L32.8952926,9.47533522 L34.0467258,9.47533522 C34.8438758,9.47533522 35.4269675,9.63033428 35.7960184,9.94033706 C36.1650693,10.2503398 36.349592,10.7817652 36.349592,11.5346291 C36.349592,12.287493 36.1466171,12.8226088 35.740661,13.1399926 C35.334705,13.4573764 34.6888756,13.6160659 33.8031534,13.6160659 L32.8952926,13.6160659 Z M29.7067085,7.12818305 L29.7067085,22.9382458 L35.0874442,22.9382458 C36.0174525,22.9382458 36.7961383,22.8127704 37.4235249,22.5618157 C38.0509114,22.3108611 38.5601941,21.9750298 38.9513881,21.5543117 C39.3425821,21.1335937 39.6193661,20.6427633 39.7817485,20.0818059 C39.9441309,19.5208485 40.0253209,18.9303758 40.0253209,18.3103703 C40.0253209,17.2475036 39.7669891,16.3986992 39.2503178,15.7639316 C38.7336465,15.129164 38.0324603,14.7527377 37.1467381,14.6346414 L37.1467381,14.5903555 C37.9438881,14.368925 38.5417416,13.9519037 38.9403166,13.3392791 C39.3388916,12.7266546 39.5381761,11.9922543 39.5381761,11.1360561 C39.5381761,10.3831922 39.4274625,9.74843412 39.2060319,9.23176282 C38.9846014,8.71509152 38.6746033,8.30176068 38.2760283,7.9917579 C37.8774532,7.68175512 37.4013847,7.46032789 36.8478083,7.32746955 C36.2942319,7.19461122 35.6926879,7.12818305 35.0431583,7.12818305 L29.7067085,7.12818305 Z M42.4417211,22.9382458 L51.2767561,22.9382458 L51.2767561,20.3253783 L45.6303051,20.3253783 L45.6303051,7.12818305 L42.4417211,7.12818305 L42.4417211,22.9382458 Z M53.2724403,22.9382458 L56.4610244,22.9382458 L56.4610244,7.12818305 L53.2724403,7.12818305 L53.2724403,22.9382458 Z M66.0074528,12.4646328 L69.1960369,12.4646328 C69.1960369,11.8889133 69.1554419,11.2726075 69.0742507,10.6156969 C68.9930595,9.95878623 68.7900846,9.34617088 68.4653197,8.77783245 C68.1405549,8.20949402 67.6497245,7.74080637 66.9928139,7.37175544 C66.3359032,7.00270451 65.4391229,6.81818182 64.3024461,6.81818182 C63.1067211,6.81818182 62.154584,7.02115678 61.4460062,7.42711281 C60.7374284,7.83306883 60.1949317,8.39770828 59.8184997,9.1210481 C59.4420678,9.84438792 59.1984978,10.7116446 59.0877825,11.7228441 C58.9770672,12.7340437 58.9217104,13.8374894 58.9217104,15.0332144 C58.9217104,16.2437015 58.9770672,17.3508376 59.0877825,18.3546562 C59.1984978,19.3584747 59.4420678,20.2220409 59.8184997,20.9453807 C60.1949317,21.6687206 60.7374284,22.2222886 61.4460062,22.6061016 C62.154584,22.9899146 63.1067211,23.1818182 64.3024461,23.1818182 C65.3505507,23.1818182 66.2030456,23.0194382 66.8599562,22.6946734 C67.5168669,22.3699086 68.0261495,21.9196732 68.3878194,21.3439537 C68.7494893,20.7682343 68.9967498,20.0965717 69.1296081,19.3289457 C69.2624664,18.5613198 69.3288946,17.74942 69.3288946,16.8932218 L66.1403105,16.8932218 C66.1403105,17.74942 66.0886442,18.4395348 65.9853099,18.9635872 C65.8819756,19.4876395 65.7417384,19.8935894 65.5645939,20.1814491 C65.3874495,20.4693089 65.1770936,20.6612125 64.93352,20.7571657 C64.6899464,20.8531189 64.4279242,20.9010948 64.1474455,20.9010948 C63.8079186,20.9010948 63.5089918,20.8309762 63.2506562,20.6907369 C62.9923205,20.5504975 62.7782742,20.2774039 62.6085108,19.8714479 C62.4387474,19.4654919 62.3132719,18.8934715 62.2320807,18.1553697 C62.1508895,17.4172678 62.1102945,16.4503689 62.1102945,15.2546439 C62.1102945,14.132729 62.1398181,13.1842824 62.1988663,12.4092754 C62.2579144,11.6342685 62.3612472,11.0068913 62.5088675,10.5271251 C62.6564879,10.0473589 62.8594629,9.70045623 63.1177985,9.48640669 C63.3761342,9.27235715 63.7045846,9.16533399 64.1031596,9.16533399 C64.8264994,9.16533399 65.3247107,9.42735622 65.5978084,9.95140854 C65.870906,10.4754609 66.0074528,11.3131939 66.0074528,12.4646328 L66.0074528,12.4646328 Z" id="PUBLIC" fill="#FFFFFF" sketch:type="MSShapeGroup"></path>
        </g>
    </g>
</svg>