<?xml version="1.0" encoding="UTF-8" standalone="no"?>
<svg width="60px" height="35px" viewBox="0 0 60 35" version="1.1" xmlns="http://www.w3.org/2000/svg" xmlns:xlink="http://www.w3.org/1999/xlink" xmlns:sketch="http://www.bohemiancoding.com/sketch/ns">
    <!-- Generator: Sketch 3.4.2 (15855) - http://www.bohemiancoding.com/sketch -->
    <title>public</title>
    <desc>Created with Sketch.</desc>
    <defs></defs>
    <g id="Page-1" stroke="none" stroke-width="1" fill="none" fill-rule="evenodd" sketch:type="MSPage">
        <g id="public" sketch:type="MSLayerGroup" transform="translate(0.000000, 11.000000)">
            <rect id="Rectangle-3" fill="#75C05F" sketch:type="MSShapeGroup" x="0" y="0" width="60" height="24"></rect>
            <path d="M6.91450363,11.4242834 L6.91450363,7.58026818 L7.97736499,7.58026818 C8.61508499,7.58026818 9.06974892,7.74560051 9.3413704,8.07627014 C9.61299189,8.40693978 9.74880059,8.89112733 9.74880059,9.52884734 C9.74880059,10.178377 9.59232534,10.6566598 9.27937016,10.9637102 C8.96641497,11.2707605 8.55603649,11.4242834 8.04822241,11.4242834 L6.91450363,11.4242834 Z M4.36363636,5.70254644 L4.36363636,18.3505966 L6.91450363,18.3505966 L6.91450363,13.3020052 L8.27850904,13.3020052 C8.88080016,13.3020052 9.4299397,13.2252437 9.92594415,13.0717185 C10.4219486,12.9181934 10.8441365,12.687909 11.1925206,12.3808587 C11.5409047,12.0738083 11.8125221,11.6781916 12.007381,11.1939968 C12.2022399,10.709802 12.2996679,10.1429483 12.2996679,9.49341862 C12.2996679,9.02103344 12.2406206,8.55751242 12.1225243,8.10284168 C12.004428,7.64817093 11.809572,7.24369718 11.5379505,6.88940829 C11.2663291,6.5351194 10.9090931,6.24874017 10.466232,6.03026202 C10.0233709,5.81178388 9.47718371,5.70254644 8.82765408,5.70254644 L4.36363636,5.70254644 Z M16.2876533,5.70254644 L13.736786,5.70254644 L13.736786,14.5242957 C13.736786,15.3745891 13.8489758,16.065442 14.0733588,16.5968754 C14.2977417,17.1283087 14.5988828,17.5386872 14.9767909,17.8280231 C15.3546991,18.1173591 15.7857441,18.3092627 16.2699389,18.4037397 C16.7541337,18.4982167 17.2560355,18.5454545 17.7756592,18.5454545 C18.2952829,18.5454545 18.7971846,18.492312 19.2813794,18.3860253 C19.7655743,18.2797387 20.1966193,18.0730733 20.5745274,17.7660229 C20.9524356,17.4589725 21.2535766,17.0426893 21.4779596,16.5171608 C21.7023425,15.9916323 21.8145323,15.3273506 21.8145323,14.5242957 L21.8145323,5.70254644 L19.2636651,5.70254644 L19.2636651,14.5242957 C19.2636651,14.8431557 19.2429985,15.1354397 19.2016648,15.4011564 C19.1603311,15.666873 19.0835697,15.8971573 18.9713782,16.0920162 C18.8591867,16.2868751 18.7086162,16.440398 18.5196621,16.5525895 C18.3307081,16.664781 18.0827096,16.7208759 17.7756592,16.7208759 C17.4804184,16.7208759 17.2353723,16.664781 17.0405134,16.5525895 C16.8456545,16.440398 16.6921316,16.2868751 16.5799401,16.0920162 C16.4677487,15.8971573 16.3909872,15.666873 16.3496535,15.4011564 C16.3083198,15.1354397 16.2876533,14.8431557 16.2876533,14.5242957 L16.2876533,5.70254644 Z M26.3162341,16.4728749 L26.3162341,12.6642884 L27.4145242,12.6642884 C27.6979553,12.6642884 27.9577632,12.693812 28.1939558,12.7528601 C28.4301484,12.8119083 28.6338615,12.915241 28.8051011,13.0628614 C28.9763407,13.2104817 29.1121494,13.4053377 29.2125313,13.6474351 C29.3129132,13.8895325 29.3631033,14.1936259 29.3631033,14.5597244 C29.3631033,15.2919215 29.1741521,15.7938232 28.7962439,16.0654447 C28.4183358,16.3370662 27.9223388,16.4728749 27.308238,16.4728749 L26.3162341,16.4728749 Z M26.3162341,10.8928527 L26.3162341,7.58026818 L27.2373806,7.58026818 C27.8751006,7.58026818 28.341574,7.70426743 28.6368147,7.95226965 C28.9320555,8.20027188 29.0796736,8.62541217 29.0796736,9.22770328 C29.0796736,9.8299944 28.9172937,10.2580871 28.5925288,10.5119941 C28.267764,10.7659011 27.7511005,10.8928527 27.0425227,10.8928527 L26.3162341,10.8928527 Z M23.7653668,5.70254644 L23.7653668,18.3505966 L28.0699553,18.3505966 C28.813962,18.3505966 29.4369106,18.2502163 29.9388199,18.0494526 C30.4407292,17.8486889 30.8481553,17.5800238 31.1611105,17.2434494 C31.4740656,16.9068749 31.6954929,16.5142106 31.8253988,16.0654447 C31.9553047,15.6166788 32.0202567,15.1443007 32.0202567,14.6482962 C32.0202567,13.7980029 31.8135913,13.1189594 31.4002543,12.6111453 C30.9869172,12.1033312 30.4259682,11.8021902 29.7173904,11.7077131 L29.7173904,11.6722844 C30.3551104,11.49514 30.8333933,11.1615229 31.1522533,10.6714233 C31.4711133,10.1813237 31.6305409,9.5938034 31.6305409,8.90884488 C31.6305409,8.30655376 31.54197,7.7987473 31.3648256,7.38541026 C31.1876811,6.97207322 30.9396826,6.64140855 30.6208226,6.39340632 C30.3019626,6.1454041 29.9211078,5.96826231 29.4782466,5.86197564 C29.0353855,5.75568898 28.5541503,5.70254644 28.0345266,5.70254644 L23.7653668,5.70254644 Z M33.9533768,18.3505966 L41.0214049,18.3505966 L41.0214049,16.2603026 L36.5042441,16.2603026 L36.5042441,5.70254644 L33.9533768,5.70254644 L33.9533768,18.3505966 Z M42.6179523,18.3505966 L45.1688195,18.3505966 L45.1688195,5.70254644 L42.6179523,5.70254644 L42.6179523,18.3505966 Z M52.8059623,9.97170624 L55.3568295,9.97170624 C55.3568295,9.51113068 55.3243535,9.01808603 55.2594006,8.49255751 C55.1944476,7.96702899 55.0320676,7.47693671 54.7722558,7.02226596 C54.5124439,6.56759522 54.1197796,6.1926451 53.5942511,5.89740435 C53.0687226,5.60216361 52.3512983,5.45454545 51.4419569,5.45454545 C50.4853769,5.45454545 49.7236672,5.61692543 49.1568049,5.94169024 C48.5899427,6.26645506 48.1559453,6.71816662 47.8547998,7.29683848 C47.5536542,7.87551034 47.3587982,8.56931567 47.270226,9.37827531 C47.1816538,10.1872349 47.1373683,11.0699915 47.1373683,12.0265715 C47.1373683,12.9949612 47.1816538,13.8806701 47.270226,14.6837249 C47.3587982,15.4867798 47.5536542,16.1776327 47.8547998,16.7563046 C48.1559453,17.3349764 48.5899427,17.7778309 49.1568049,18.0848813 C49.7236672,18.3919317 50.4853769,18.5454545 51.4419569,18.5454545 C52.2804406,18.5454545 52.9624365,18.4155506 53.487965,18.1557387 C54.0134935,17.8959269 54.4209196,17.5357386 54.7102555,17.075163 C54.9995915,16.6145874 55.1973998,16.0772573 55.3036865,15.4631566 C55.4099731,14.8490559 55.4631157,14.199536 55.4631157,13.5145774 L52.9122484,13.5145774 C52.9122484,14.199536 52.8709153,14.7516279 52.7882479,15.1708697 C52.7055805,15.5901116 52.5933907,15.9148715 52.4516752,16.1451593 C52.3099596,16.3754471 52.1416749,16.52897 51.946816,16.6057326 C51.7519571,16.6824952 51.5423393,16.7208759 51.3179564,16.7208759 C51.0463349,16.7208759 50.8071935,16.664781 50.6005249,16.5525895 C50.3938564,16.440398 50.2226194,16.2219231 50.0868086,15.8971583 C49.9509979,15.5723935 49.8506175,15.1147772 49.7856646,14.5242957 C49.7207116,13.9338142 49.6882356,13.1602951 49.6882356,12.2037151 C49.6882356,11.3061832 49.7118545,10.5474259 49.759093,9.92742035 C49.8063316,9.30741479 49.8889977,8.80551305 50.007094,8.42170009 C50.1251903,8.03788712 50.2875703,7.76036498 50.4942388,7.58912535 C50.7009073,7.41788572 50.9636677,7.33226719 51.2825277,7.33226719 C51.8611995,7.33226719 52.2597685,7.54188497 52.4782467,7.96112683 C52.6967248,8.38036868 52.8059623,9.05055512 52.8059623,9.97170624 L52.8059623,9.97170624 Z" id="PUBLIC" fill="#FFFFFF" sketch:type="MSShapeGroup"></path>
        </g>
    </g>
</svg>