<?xml version="1.0" encoding="UTF-8" standalone="no"?>
<svg width="25px" height="10px" viewBox="0 0 25 10" version="1.1" xmlns="http://www.w3.org/2000/svg" xmlns:xlink="http://www.w3.org/1999/xlink" xmlns:sketch="http://www.bohemiancoding.com/sketch/ns">
    <!-- Generator: Sketch 3.4.2 (15855) - http://www.bohemiancoding.com/sketch -->
    <title>public</title>
    <desc>Created with Sketch.</desc>
    <defs></defs>
    <g id="Page-1" stroke="none" stroke-width="1" fill="none" fill-rule="evenodd" sketch:type="MSPage">
        <g id="public" sketch:type="MSLayerGroup">
            <rect id="Rectangle-3" fill="#75C05F" sketch:type="MSShapeGroup" x="0" y="0" width="25" height="10"></rect>
            <path d="M2.88104318,4.7601181 L2.88104318,3.15844507 L3.32390208,3.15844507 C3.58961875,3.15844507 3.77906205,3.22733355 3.89223767,3.36511256 C4.00541329,3.50289157 4.06200025,3.70463639 4.06200025,3.97035306 C4.06200025,4.2409904 3.99680223,4.44027492 3.86640423,4.56821257 C3.73600624,4.69615023 3.5650152,4.7601181 3.35342601,4.7601181 L2.88104318,4.7601181 Z M1.81818182,2.37606102 L1.81818182,7.64608193 L2.88104318,7.64608193 L2.88104318,5.54250215 L3.44937877,5.54250215 C3.7003334,5.54250215 3.92914154,5.51051822 4.13581006,5.44654939 C4.34247858,5.38258056 4.51839022,5.28662876 4.66355025,5.15869111 C4.80871028,5.03075345 4.9218842,4.86591318 5.00307541,4.66416533 C5.08426661,4.46241749 5.12486161,4.22622844 5.12486161,3.95559109 C5.12486161,3.75876393 5.10025858,3.56563018 5.05105179,3.37618403 C5.001845,3.18673789 4.92065501,3.01820716 4.80747939,2.87058679 C4.69430378,2.72296642 4.54545547,2.60364174 4.36093,2.51260918 C4.17640454,2.42157661 3.94882655,2.37606102 3.6781892,2.37606102 L1.81818182,2.37606102 Z M6.7865222,2.37606102 L5.72366084,2.37606102 L5.72366084,6.05178989 C5.72366084,6.40607878 5.77040659,6.69393419 5.86389949,6.91536474 C5.95739239,7.1367953 6.08286782,7.30778633 6.24032955,7.42834297 C6.39779128,7.54889961 6.57739337,7.62885944 6.77914122,7.66822487 C6.98088906,7.70759031 7.19001478,7.72727273 7.40652466,7.72727273 C7.62303454,7.72727273 7.83216026,7.70513 8.0339081,7.66084389 C8.23565594,7.61655778 8.41525803,7.53044719 8.57271976,7.40250953 C8.73018149,7.27457188 8.85565692,7.10112054 8.94914983,6.88215033 C9.04264273,6.66318011 9.08938848,6.38639606 9.08938848,6.05178989 L9.08938848,2.37606102 L8.02652712,2.37606102 L8.02652712,6.05178989 C8.02652712,6.18464822 8.01791606,6.3064332 8.00069368,6.41714848 C7.98347131,6.52786376 7.95148737,6.62381556 7.90474092,6.70500677 C7.85799447,6.78619797 7.79525675,6.85016584 7.71652589,6.89691229 C7.63779502,6.94365874 7.53446231,6.96703162 7.40652466,6.96703162 C7.28350768,6.96703162 7.18140512,6.94365874 7.10021392,6.89691229 C7.01902271,6.85016584 6.95505485,6.78619797 6.90830839,6.70500677 C6.86156194,6.62381556 6.82957801,6.52786376 6.81235563,6.41714848 C6.79513326,6.3064332 6.7865222,6.18464822 6.7865222,6.05178989 L6.7865222,2.37606102 Z M10.9650975,6.86369787 L10.9650975,5.27678681 L11.4227184,5.27678681 C11.5408147,5.27678681 11.649068,5.28908833 11.7474816,5.31369172 C11.8458952,5.33829512 11.9307756,5.38135041 12.0021255,5.4428589 C12.0734753,5.50436739 12.1300623,5.58555737 12.171888,5.6864313 C12.2137138,5.78730522 12.2346264,5.9140108 12.2346264,6.06655185 C12.2346264,6.37163395 12.1558967,6.58075968 11.998435,6.69393529 C11.8409732,6.80711091 11.6343078,6.86369787 11.3784325,6.86369787 L10.9650975,6.86369787 Z M10.9650975,4.53868865 L10.9650975,3.15844507 L11.3489086,3.15844507 C11.6146253,3.15844507 11.8089892,3.21011143 11.9320061,3.31344569 C12.0550231,3.41677995 12.1165307,3.59392174 12.1165307,3.84487637 C12.1165307,4.095831 12.0488724,4.27420294 11.9135537,4.37999754 C11.778235,4.48579214 11.5629585,4.53868865 11.2677178,4.53868865 L10.9650975,4.53868865 Z M9.90223618,2.37606102 L9.90223618,7.64608193 L11.6958147,7.64608193 C12.0058175,7.64608193 12.2653794,7.60425678 12.4745083,7.52060524 C12.6836371,7.4369537 12.853398,7.32500993 12.983796,7.18477057 C13.114194,7.04453122 13.2064554,6.8809211 13.2605828,6.69393529 C13.3147103,6.50694949 13.3417736,6.31012528 13.3417736,6.10345676 C13.3417736,5.74916787 13.255663,5.46623307 13.0834393,5.25464387 C12.9112155,5.04305467 12.6774868,4.91757923 12.382246,4.8782138 L12.382246,4.86345184 C12.6479627,4.78964165 12.8472472,4.65063456 12.9801055,4.44642637 C13.1129639,4.24221819 13.179392,3.99741808 13.179392,3.7120187 C13.179392,3.46106407 13.1424875,3.24947804 13.0686773,3.07725427 C12.9948671,2.90503051 12.8915344,2.76725356 12.7586761,2.6639193 C12.6258177,2.56058504 12.4671282,2.48677596 12.2826028,2.44248985 C12.0980773,2.39820374 11.8975626,2.37606102 11.6810528,2.37606102 L9.90223618,2.37606102 Z M14.1472404,7.64608193 L17.092252,7.64608193 L17.092252,6.77512609 L15.2101017,6.77512609 L15.2101017,2.37606102 L14.1472404,2.37606102 L14.1472404,7.64608193 Z M17.7574801,7.64608193 L18.8203415,7.64608193 L18.8203415,2.37606102 L17.7574801,2.37606102 L17.7574801,7.64608193 Z M22.0024843,4.1548776 L23.0653456,4.1548776 C23.0653456,3.96297112 23.051814,3.75753585 23.0247502,3.53856563 C22.9976865,3.31959541 22.9300282,3.11539029 22.8217732,2.92594415 C22.7135183,2.73649801 22.5499082,2.58026879 22.330938,2.45725181 C22.1119677,2.33423484 21.813041,2.27272727 21.4341487,2.27272727 C21.0355737,2.27272727 20.7181947,2.34038559 20.4820021,2.47570427 C20.2458095,2.61102294 20.0649772,2.79923609 19.9394999,3.04034937 C19.8140226,3.28146264 19.7328326,3.5705482 19.6959275,3.90761471 C19.6590224,4.24468123 19.6405701,4.61249647 19.6405701,5.01107147 C19.6405701,5.41456715 19.6590224,5.78361255 19.6959275,6.11821872 C19.7328326,6.4528249 19.8140226,6.74068031 19.9394999,6.98179358 C20.0649772,7.22290685 20.2458095,7.40742955 20.4820021,7.5353672 C20.7181947,7.66330486 21.0355737,7.72727273 21.4341487,7.72727273 C21.7835169,7.72727273 22.0676819,7.67314607 22.2866521,7.56489113 C22.5056223,7.45663619 22.6753832,7.30655773 22.7959398,7.11465125 C22.9164964,6.92274477 22.9989166,6.69885723 23.0432027,6.44298192 C23.0874888,6.18710661 23.1096315,5.91647332 23.1096315,5.63107393 L22.0467702,5.63107393 C22.0467702,5.91647332 22.0295481,6.14651161 21.9951033,6.32119572 C21.9606585,6.49587983 21.9139128,6.63119647 21.8548646,6.72714971 C21.7958165,6.82310295 21.7256979,6.88707082 21.6445067,6.91905523 C21.5633155,6.95103965 21.4759747,6.96703162 21.3824818,6.96703162 C21.2693062,6.96703162 21.1696639,6.94365874 21.0835521,6.89691229 C20.9974402,6.85016584 20.9260914,6.75913464 20.8695036,6.62381597 C20.8129158,6.48849729 20.7710906,6.29782384 20.7440269,6.05178989 C20.7169632,5.80575594 20.7034315,5.48345629 20.7034315,5.08488129 C20.7034315,4.71090968 20.7132727,4.39476079 20.7329554,4.13642514 C20.7526381,3.87808949 20.7870824,3.66896377 20.8362892,3.5090417 C20.885496,3.34911963 20.9531543,3.23348541 21.0392662,3.16213556 C21.1253781,3.09078572 21.2348615,3.05511133 21.3677199,3.05511133 C21.6088331,3.05511133 21.7749036,3.14245207 21.8659361,3.31713618 C21.9569687,3.49182029 22.0024843,3.77106463 22.0024843,4.1548776 L22.0024843,4.1548776 Z" id="PUBLIC" fill="#FFFFFF" sketch:type="MSShapeGroup"></path>
        </g>
    </g>
</svg>