<?xml version="1.0" encoding="UTF-8" standalone="no"?>
<svg width="55px" height="28px" viewBox="0 0 55 28" version="1.1" xmlns="http://www.w3.org/2000/svg" xmlns:xlink="http://www.w3.org/1999/xlink" xmlns:sketch="http://www.bohemiancoding.com/sketch/ns">
    <!-- Generator: Sketch 3.4.2 (15855) - http://www.bohemiancoding.com/sketch -->
    <title>public</title>
    <desc>Created with Sketch.</desc>
    <defs></defs>
    <g id="Page-1" stroke="none" stroke-width="1" fill="none" fill-rule="evenodd" sketch:type="MSPage">
        <g id="public" sketch:type="MSLayerGroup">
            <rect id="Rectangle-2" sketch:type="MSShapeGroup" x="0" y="0" width="55" height="28"></rect>
            <rect id="Rectangle-3" fill="#B5D9BB" sketch:type="MSShapeGroup" x="0" y="6" width="55" height="22"></rect>
            <path d="M6.33829499,16.4722598 L6.33829499,12.9485792 L7.31258457,12.9485792 C7.89716124,12.9485792 8.31393651,13.1001338 8.56292287,13.4032476 C8.81190923,13.7063615 8.93640054,14.1502001 8.93640054,14.7347767 C8.93640054,15.3301789 8.7929649,15.7686048 8.50608931,16.0500677 C8.21921372,16.3315305 7.84303345,16.4722598 7.37753721,16.4722598 L6.33829499,16.4722598 Z M4,11.2273342 L4,22.8213802 L6.33829499,22.8213802 L6.33829499,18.1935047 L7.58863329,18.1935047 C8.14073348,18.1935047 8.64411139,18.1231401 9.09878214,17.9824087 C9.55345288,17.8416772 9.94045848,17.6305833 10.2598106,17.3491204 C10.5791626,17.0676576 10.8281453,16.705009 11.0067659,16.2611637 C11.1853865,15.8173185 11.2746955,15.2977026 11.2746955,14.7023004 C11.2746955,14.2692806 11.2205689,13.8443864 11.1123139,13.4276049 C11.004059,13.0108234 10.825441,12.6400558 10.5764547,12.3152909 C10.3274683,11.9905261 10.000002,11.7280118 9.59404601,11.5277402 C9.18808999,11.3274686 8.6874184,11.2273342 8.09201624,11.2273342 L4,11.2273342 Z M14.9303488,11.2273342 L12.5920538,11.2273342 L12.5920538,19.3139378 C12.5920538,20.0933733 12.6948945,20.7266552 12.9005789,21.2138024 C13.1062633,21.7009497 13.3823092,22.0771299 13.728725,22.3423545 C14.0751408,22.6075791 14.4702654,22.7834908 14.9141107,22.8700947 C15.3579559,22.9566987 15.8180325,23 16.2943542,23 C16.770676,23 17.2307526,22.951286 17.6745978,22.8538566 C18.1184431,22.7564271 18.5135677,22.5669838 18.8599835,22.285521 C19.2063993,22.0040581 19.4824452,21.6224652 19.6881296,21.1407307 C19.893814,20.6589962 19.9966547,20.0500713 19.9966547,19.3139378 L19.9966547,11.2273342 L17.6583597,11.2273342 L17.6583597,19.3139378 C17.6583597,19.6062261 17.6394153,19.874153 17.6015261,20.1177267 C17.5636369,20.3613003 17.4932722,20.5723942 17.39043,20.7510149 C17.2875878,20.9296355 17.1495649,21.0703648 16.976357,21.173207 C16.8031491,21.2760492 16.5758171,21.3274696 16.2943542,21.3274696 C16.0237169,21.3274696 15.7990913,21.2760492 15.6204706,21.173207 C15.44185,21.0703648 15.3011207,20.9296355 15.1982785,20.7510149 C15.0954363,20.5723942 15.0250716,20.3613003 14.9871824,20.1177267 C14.9492932,19.874153 14.9303488,19.6062261 14.9303488,19.3139378 L14.9303488,11.2273342 Z M24.1232146,21.1001353 L24.1232146,17.608931 L25.1299805,17.608931 C25.3897923,17.608931 25.6279496,17.6359943 25.8444595,17.6901218 C26.0609694,17.7442493 26.2477064,17.8389709 26.404676,17.9742896 C26.5616457,18.1096083 26.686137,18.2882262 26.7781537,18.5101488 C26.8701704,18.7320715 26.916178,19.0108238 26.916178,19.3464141 C26.916178,20.0175947 26.7429727,20.4776713 26.3965569,20.7266576 C26.0501411,20.975644 25.5954772,21.1001353 25.0325515,21.1001353 L24.1232146,21.1001353 Z M24.1232146,15.985115 L24.1232146,12.9485792 L24.9675989,12.9485792 C25.5521756,12.9485792 25.9797762,13.0622451 26.2504135,13.2895805 C26.5210508,13.5169159 26.6563675,13.9066278 26.6563675,14.458728 C26.6563675,15.0108282 26.5075192,15.4032465 26.2098181,15.6359946 C25.912117,15.8687427 25.4385088,15.985115 24.7889791,15.985115 L24.1232146,15.985115 Z M21.7849196,11.2273342 L21.7849196,22.8213802 L25.7307924,22.8213802 C26.4127985,22.8213802 26.9838347,22.7293649 27.4439182,22.5453315 C27.9040017,22.3612981 28.2774757,22.1150218 28.5643513,21.8064953 C28.8512268,21.4979687 29.0542018,21.1380264 29.1732822,20.7266576 C29.2923627,20.3152889 29.351902,19.8822756 29.351902,19.4276049 C29.351902,18.6481693 29.1624587,18.0257127 28.7835664,17.5602165 C28.4046741,17.0947203 27.8904709,16.8186743 27.2409412,16.7320704 L27.2409412,16.699594 C27.8255179,16.5372116 28.2639438,16.231396 28.5562322,15.782138 C28.8485205,15.33288 28.9946625,14.7943198 28.9946625,14.1664411 C28.9946625,13.6143409 28.9134725,13.1488517 28.7510901,12.7699594 C28.5887077,12.3910671 28.3613757,12.0879578 28.0690874,11.8606225 C27.776799,11.6332871 27.4276821,11.4709071 27.0217261,11.3734777 C26.6157701,11.2760482 26.1746378,11.2273342 25.6983161,11.2273342 L21.7849196,11.2273342 Z M31.1239288,22.8213802 L37.6029545,22.8213802 L37.6029545,20.9052774 L33.4622238,20.9052774 L33.4622238,11.2273342 L31.1239288,11.2273342 L31.1239288,22.8213802 Z M39.0664562,22.8213802 L41.4047512,22.8213802 L41.4047512,11.2273342 L39.0664562,11.2273342 L39.0664562,22.8213802 Z M48.4054654,15.1407307 L50.7437604,15.1407307 C50.7437604,14.7185365 50.7139907,14.2665789 50.6544505,13.7848444 C50.5949103,13.3031099 50.446062,12.8538586 50.2079011,12.4370771 C49.9697403,12.0202956 49.609798,11.6765913 49.1280635,11.405954 C48.646329,11.1353166 47.9886902,11 47.1551271,11 C46.2782621,11 45.5800282,11.1488483 45.0604045,11.4465494 C44.5407808,11.7442505 44.1429499,12.1583194 43.8668998,12.6887686 C43.5908497,13.2192178 43.4122317,13.855206 43.3310405,14.5967524 C43.2498493,15.3382987 43.2092543,16.1474922 43.2092543,17.0243572 C43.2092543,17.9120477 43.2498493,18.7239476 43.3310405,19.4600812 C43.4122317,20.1962148 43.5908497,20.8294967 43.8668998,21.3599459 C44.1429499,21.8903951 44.5407808,22.296345 45.0604045,22.5778078 C45.5800282,22.8592707 46.2782621,23 47.1551271,23 C47.9237372,23 48.5489001,22.8809214 49.0306346,22.6427605 C49.512369,22.4045996 49.885843,22.074427 50.1510676,21.6522327 C50.4162922,21.2300385 50.5976165,20.7374859 50.6950459,20.1745602 C50.7924754,19.6116345 50.8411894,19.0162413 50.8411894,18.3883627 L48.5028944,18.3883627 C48.5028944,19.0162413 48.4650057,19.5223255 48.3892273,19.9066306 C48.3134488,20.2909356 48.2106081,20.5886322 48.0807022,20.7997294 C47.9507963,21.0108265 47.7965353,21.1515558 47.6179147,21.2219215 C47.439294,21.2922872 47.2471444,21.3274696 47.04146,21.3274696 C46.7924736,21.3274696 46.5732607,21.2760492 46.3838145,21.173207 C46.1943684,21.0703648 46.0374011,20.8700962 45.9129079,20.5723951 C45.7884147,20.274694 45.6963994,19.8552124 45.6368592,19.3139378 C45.577319,18.7726631 45.5475493,18.0636038 45.5475493,17.1867388 C45.5475493,16.3640013 45.5692,15.6684737 45.612502,15.1001353 C45.6558039,14.5317969 45.7315812,14.0717203 45.8398362,13.7198917 C45.9480911,13.3680632 46.0969394,13.1136679 46.2863856,12.9566982 C46.4758317,12.7997286 46.7166953,12.7212449 47.0089837,12.7212449 C47.5394329,12.7212449 47.9047878,12.9133946 48.1050595,13.2976996 C48.3053311,13.6820046 48.4054654,14.2963422 48.4054654,15.1407307 L48.4054654,15.1407307 Z" id="PUBLIC" fill="#FFFFFF" sketch:type="MSShapeGroup"></path>
        </g>
    </g>
</svg>