<?xml version="1.0" encoding="UTF-8" standalone="no"?>
<svg width="65px" height="41px" viewBox="0 0 65 41" version="1.1" xmlns="http://www.w3.org/2000/svg" xmlns:xlink="http://www.w3.org/1999/xlink" xmlns:sketch="http://www.bohemiancoding.com/sketch/ns">
    <!-- Generator: Sketch 3.4.2 (15855) - http://www.bohemiancoding.com/sketch -->
    <title>public</title>
    <desc>Created with Sketch.</desc>
    <defs></defs>
    <g id="Page-1" stroke="none" stroke-width="1" fill="none" fill-rule="evenodd" sketch:type="MSPage">
        <g id="public" sketch:type="MSLayerGroup" transform="translate(0.000000, 15.000000)">
            <rect id="Rectangle-3" fill="#75C05F" sketch:type="MSShapeGroup" x="0" y="0" width="65" height="26"></rect>
            <path d="M7.49071226,12.376307 L7.49071226,8.21195719 L8.64214541,8.21195719 C9.33300874,8.21195719 9.82556133,8.39106722 10.1198179,8.74929266 C10.4140745,9.10751809 10.5612006,9.63205461 10.5612006,10.3229179 C10.5612006,11.0265751 10.3916858,11.5447148 10.052651,11.8773527 C9.71361622,12.2099906 9.26903953,12.376307 8.71890761,12.376307 L7.49071226,12.376307 Z M4.72727273,6.17775864 L4.72727273,19.879813 L7.49071226,19.879813 L7.49071226,14.4105056 L8.9683848,14.4105056 C9.62086684,14.4105056 10.215768,14.3273474 10.7531062,14.1610284 C11.2904443,13.9947095 11.7478146,13.7452348 12.1252307,13.4125969 C12.5026467,13.079959 12.7968989,12.6513743 13.0079961,12.1268299 C13.2190932,11.6022855 13.3246402,10.9881939 13.3246402,10.2845368 C13.3246402,9.77278622 13.2606723,9.27063846 13.1327347,8.77807848 C13.004797,8.28551851 12.793703,7.84733861 12.4994464,7.46352565 C12.2051898,7.07971268 11.8181842,6.76946852 11.338418,6.53278386 C10.8586518,6.2960992 10.266949,6.17775864 9.56329192,6.17775864 L4.72727273,6.17775864 Z M17.6449577,6.17775864 L14.8815182,6.17775864 L14.8815182,15.7346537 C14.8815182,16.6558048 15.0030571,17.4042289 15.2461387,17.9799483 C15.4892202,18.5556678 15.8154563,19.0002445 16.2248568,19.3136917 C16.6342573,19.627139 17.1012228,19.8350345 17.6257672,19.9373847 C18.1503115,20.0397348 18.6940384,20.0909091 19.2569641,20.0909091 C19.8198898,20.0909091 20.3636167,20.033338 20.8881611,19.9181941 C21.4127054,19.8030502 21.8796709,19.5791627 22.2890714,19.2465248 C22.6984719,18.9138869 23.024708,18.4629134 23.2677895,17.8935908 C23.5108711,17.3242683 23.63241,16.6046298 23.63241,15.7346537 L23.63241,6.17775864 L20.8689705,6.17775864 L20.8689705,15.7346537 C20.8689705,16.0800854 20.8465818,16.3967263 20.8018036,16.684586 C20.7570254,16.9724458 20.6738672,17.2219205 20.5523264,17.4330176 C20.4307856,17.6441147 20.2676676,17.8104312 20.0629673,17.931972 C19.8582671,18.0535127 19.589602,18.1142822 19.2569641,18.1142822 C18.93712,18.1142822 18.6716533,18.0535127 18.4605562,17.931972 C18.2494591,17.8104312 18.0831426,17.6441147 17.9616018,17.4330176 C17.8400611,17.2219205 17.7569028,16.9724458 17.7121246,16.684586 C17.6673465,16.3967263 17.6449577,16.0800854 17.6449577,15.7346537 L17.6449577,6.17775864 Z M28.5092536,17.8456145 L28.5092536,13.7196457 L29.6990678,13.7196457 C30.0061182,13.7196457 30.2875768,13.7516296 30.5434521,13.8155985 C30.7993275,13.8795673 31.0200166,13.9915111 31.2055262,14.1514331 C31.3910358,14.3113552 31.5381619,14.5224492 31.6469089,14.7847214 C31.7556559,15.0469936 31.8100286,15.3764281 31.8100286,15.7730348 C31.8100286,16.5662483 31.6053314,17.1099752 31.1959309,17.4042318 C30.7865304,17.6984884 30.2492003,17.8456145 29.5839245,17.8456145 L28.5092536,17.8456145 Z M28.5092536,11.8005905 L28.5092536,8.21195719 L29.5071623,8.21195719 C30.1980257,8.21195719 30.7033718,8.34628971 31.023216,8.61495879 C31.3430601,8.88362787 31.5029798,9.34419652 31.5029798,9.99667856 C31.5029798,10.6491606 31.3270681,11.1129276 30.9752396,11.3879936 C30.623411,11.6630596 30.0636922,11.8005905 29.2960662,11.8005905 L28.5092536,11.8005905 Z M25.7458141,6.17775864 L25.7458141,19.879813 L30.4091183,19.879813 C31.2151255,19.879813 31.8899865,19.7710676 32.4337216,19.5535736 C32.9774566,19.3360796 33.4188349,19.0450258 33.7578697,18.6804035 C34.0969045,18.3157812 34.336784,17.8903949 34.4775154,17.4042318 C34.6182468,16.9180687 34.6886115,16.4063257 34.6886115,15.8689876 C34.6886115,14.9478365 34.4647239,14.212206 34.0169421,13.6620741 C33.5691603,13.1119421 32.9614656,12.785706 32.1938396,12.6833559 L32.1938396,12.6449748 C32.884703,12.4530683 33.4028427,12.0916498 33.7482744,11.5607086 C34.0937061,11.0297673 34.2664193,10.393287 34.2664193,9.65124862 C34.2664193,8.99876657 34.1704675,8.44864291 33.978561,8.00086111 C33.7866545,7.55307932 33.5179895,7.19485926 33.1725578,6.92619018 C32.8271261,6.65752111 32.4145334,6.4656175 31.9347672,6.35047361 C31.455001,6.23532972 30.9336629,6.17775864 30.3707372,6.17775864 L25.7458141,6.17775864 Z M36.7828249,19.879813 L44.4398553,19.879813 L44.4398553,17.6153278 L39.5462645,17.6153278 L39.5462645,6.17775864 L36.7828249,6.17775864 L36.7828249,19.879813 Z M46.1694483,19.879813 L48.9328878,19.879813 L48.9328878,6.17775864 L46.1694483,6.17775864 L46.1694483,19.879813 Z M57.2064591,10.8026818 L59.9698987,10.8026818 C59.9698987,10.3037249 59.9347163,9.7695932 59.8643506,9.20027064 C59.7939849,8.63094807 59.6180733,8.10001476 59.3366104,7.60745479 C59.0551476,7.11489482 58.6297613,6.70869886 58.0604387,6.38885472 C57.4911161,6.06901058 56.7139065,5.90909091 55.7287866,5.90909091 C54.6924916,5.90909091 53.8673061,6.08500255 53.2532053,6.4368311 C52.6391046,6.78865965 52.1689408,7.27801384 51.8426997,7.90490835 C51.5164587,8.53180286 51.3053648,9.28342531 51.2094115,10.1597983 C51.1134583,11.0361712 51.0654824,11.9924908 51.0654824,13.0287858 C51.0654824,14.0778746 51.1134583,15.0373926 51.2094115,15.9073687 C51.3053648,16.7773447 51.5164587,17.5257688 51.8426997,18.1526633 C52.1689408,18.7795578 52.6391046,19.2593168 53.2532053,19.5919547 C53.8673061,19.9245926 54.6924916,20.0909091 55.7287866,20.0909091 C56.637144,20.0909091 57.3759728,19.9501798 57.9452954,19.6687169 C58.514618,19.3872541 58.9559962,18.9970501 59.2694435,18.4980932 C59.5828908,17.9991364 59.7971831,17.4170288 59.912327,16.751753 C60.0274709,16.0864772 60.085042,15.3828306 60.085042,14.6407922 L57.3216024,14.6407922 C57.3216024,15.3828306 57.2768249,15.9809302 57.1872686,16.4351089 C57.0977122,16.8892875 56.9761733,17.2411108 56.8226481,17.4905892 C56.6691229,17.7400677 56.4868145,17.9063841 56.2757173,17.9895436 C56.0646202,18.0727031 55.8375343,18.1142822 55.5944527,18.1142822 C55.3001961,18.1142822 55.0411263,18.0535127 54.8172354,17.931972 C54.5933445,17.8104312 54.4078376,17.5737501 54.2607093,17.2219215 C54.113581,16.870093 54.0048357,16.374342 53.93447,15.7346537 C53.8641042,15.0949654 53.8289219,14.2569864 53.8289219,13.2206914 C53.8289219,12.2483652 53.8545091,11.4263781 53.9056841,10.7547054 C53.9568592,10.0830327 54.0464142,9.53930581 54.1743519,9.12350843 C54.3022895,8.70771105 54.4782012,8.40706207 54.702092,8.22155247 C54.9259829,8.03604287 55.21064,7.94328946 55.5560716,7.94328946 C56.1829661,7.94328946 56.6147492,8.17037539 56.8514339,8.62455407 C57.0881186,9.07873274 57.2064591,9.80476805 57.2064591,10.8026818 L57.2064591,10.8026818 Z" id="PUBLIC" fill="#FFFFFF" sketch:type="MSShapeGroup"></path>
        </g>
    </g>
</svg>