<?xml version="1.0" encoding="UTF-8" standalone="no"?>
<svg width="70px" height="41px" viewBox="0 0 70 41" version="1.1" xmlns="http://www.w3.org/2000/svg" xmlns:xlink="http://www.w3.org/1999/xlink" xmlns:sketch="http://www.bohemiancoding.com/sketch/ns">
    <!-- Generator: Sketch 3.4.2 (15855) - http://www.bohemiancoding.com/sketch -->
    <title>public</title>
    <desc>Created with Sketch.</desc>
    <defs></defs>
    <g id="Page-1" stroke="none" stroke-width="1" fill="none" fill-rule="evenodd" sketch:type="MSPage">
        <g id="public" sketch:type="MSLayerGroup" transform="translate(0.000000, 13.000000)">
            <rect id="Rectangle-3" fill="#75C05F" sketch:type="MSShapeGroup" x="0" y="0" width="70" height="28"></rect>
            <path d="M8.0669209,13.3283307 L8.0669209,8.8436462 L9.30692582,8.8436462 C10.0509325,8.8436462 10.5813737,9.03653393 10.8982655,9.42231517 C11.2151572,9.80809641 11.3736007,10.3729819 11.3736007,11.1169886 C11.3736007,11.8747731 11.1910462,12.4327698 10.8259318,12.7909952 C10.4608175,13.1492206 9.98204257,13.3283307 9.38959282,13.3283307 L8.0669209,13.3283307 Z M5.09090909,6.65297085 L5.09090909,21.4090294 L8.0669209,21.4090294 L8.0669209,15.519006 L9.65826055,15.519006 C10.3609335,15.519006 11.0015963,15.429451 11.5802682,15.2503383 C12.15894,15.0712256 12.6514926,14.8025605 13.0579407,14.4443351 C13.4643888,14.0861097 13.7812758,13.6245569 14.0086111,13.0596629 C14.2359465,12.494769 14.3496125,11.8334396 14.3496125,11.0756551 C14.3496125,10.524539 14.280724,9.98376449 14.142945,9.45331529 C14.005166,8.92286609 13.777834,8.45098005 13.4609423,8.03764301 C13.1440506,7.62430597 12.7272753,7.29019687 12.210604,7.0353057 C11.6939327,6.78041452 11.0567143,6.65297085 10.2989298,6.65297085 L5.09090909,6.65297085 Z M19.0022622,6.65297085 L16.0262503,6.65297085 L16.0262503,16.9450117 C16.0262503,17.9370206 16.1571384,18.7430157 16.4189186,19.3630213 C16.6806987,19.9830268 17.0320299,20.4618017 17.4729228,20.7993603 C17.9138156,21.1369189 18.4167014,21.3608064 18.9815954,21.4710296 C19.5464894,21.5812529 20.1320414,21.6363636 20.738269,21.6363636 C21.3444967,21.6363636 21.9300487,21.574364 22.4949427,21.4503629 C23.0598366,21.3263618 23.5627225,21.0852521 24.0036153,20.7270267 C24.4445082,20.3688013 24.7958394,19.8831375 25.0576195,19.2700209 C25.3193996,18.6569043 25.4502877,17.881909 25.4502877,16.9450117 L25.4502877,6.65297085 L22.4742759,6.65297085 L22.4742759,16.9450117 C22.4742759,17.317015 22.450165,17.658013 22.4019423,17.9680157 C22.3537197,18.2780185 22.2641646,18.5466836 22.1332746,18.7740189 C22.0023845,19.0013543 21.8267189,19.1804643 21.6062725,19.3113544 C21.3858261,19.4422445 21.0964945,19.5076885 20.738269,19.5076885 C20.3938215,19.5076885 20.1079343,19.4422445 19.880599,19.3113544 C19.6532636,19.1804643 19.4741536,19.0013543 19.3432635,18.7740189 C19.2123734,18.5466836 19.1228184,18.2780185 19.0745958,17.9680157 C19.0263731,17.658013 19.0022622,17.317015 19.0022622,16.9450117 L19.0022622,6.65297085 Z M30.7022731,19.218354 L30.7022731,14.7750031 L31.9836115,14.7750031 C32.3142812,14.7750031 32.6173904,14.8094473 32.8929485,14.8783368 C33.1685065,14.9472263 33.4061717,15.0677812 33.6059513,15.2400049 C33.8057309,15.4122287 33.9641744,15.6395606 34.0812865,15.9220076 C34.1983987,16.2044546 34.2569539,16.5592302 34.2569539,16.9863452 C34.2569539,17.8405751 34.0365108,18.4261271 33.5956179,18.7430188 C33.1547251,19.0599106 32.5760619,19.218354 31.859611,19.218354 L30.7022731,19.218354 Z M30.7022731,12.7083282 L30.7022731,8.8436462 L31.776944,8.8436462 C32.5209507,8.8436462 33.0651696,8.988312 33.4096172,9.27764793 C33.7540647,9.56698386 33.9262859,10.0629809 33.9262859,10.7656538 C33.9262859,11.4683268 33.7368426,11.9677682 33.3579503,12.2639931 C32.979058,12.560218 32.3762839,12.7083282 31.5496098,12.7083282 L30.7022731,12.7083282 Z M27.7262613,6.65297085 L27.7262613,21.4090294 L32.7482812,21.4090294 C33.616289,21.4090294 34.3430624,21.291919 34.9286232,21.0576947 C35.514184,20.8234704 35.9895145,20.5100278 36.3546289,20.1173576 C36.7197433,19.7246874 36.978075,19.2665791 37.1296319,18.7430188 C37.2811889,18.2194586 37.3569662,17.6683508 37.3569662,17.0896789 C37.3569662,16.09767 37.1158565,15.3054526 36.63363,14.7130028 C36.1514034,14.1205531 35.4969629,13.7692219 34.6702889,13.6589986 L34.6702889,13.6176651 C35.4142955,13.4109966 35.9722922,13.0217768 36.3442955,12.4499938 C36.7162988,11.8782109 36.9022977,11.1927706 36.9022977,10.3936524 C36.9022977,9.69097939 36.798965,9.09853852 36.5922965,8.61631197 C36.385628,8.13408542 36.0962964,7.74830997 35.724293,7.45897404 C35.3522897,7.16963812 34.907959,6.9629727 34.3912877,6.83897158 C33.8746164,6.71497047 33.3131754,6.65297085 32.7069477,6.65297085 L27.7262613,6.65297085 Z M39.612273,21.4090294 L47.8583057,21.4090294 L47.8583057,18.9703531 L42.5882848,18.9703531 L42.5882848,6.65297085 L39.612273,6.65297085 L39.612273,21.4090294 Z M49.7209443,21.4090294 L52.6969561,21.4090294 L52.6969561,6.65297085 L49.7209443,6.65297085 L49.7209443,21.4090294 Z M61.606956,11.6336573 L64.5829678,11.6336573 C64.5829678,11.0963191 64.5450791,10.5211004 64.4693007,9.90798376 C64.3935222,9.29486715 64.2040789,8.72309282 63.9009651,8.19264362 C63.5978513,7.66219442 63.1397429,7.22475261 62.5266263,6.88030508 C61.9135097,6.53585755 61.0765147,6.36363636 60.0156163,6.36363636 C58.8996063,6.36363636 58.010945,6.55307967 57.3496058,6.93197195 C56.6882665,7.31086424 56.1819362,7.83786106 55.8305997,8.51297823 C55.4792632,9.18809539 55.2519313,9.99753495 55.148597,10.9413212 C55.0452628,11.8851074 54.9935964,12.9149901 54.9935964,14.0310001 C54.9935964,15.160788 55.0452628,16.1941151 55.148597,17.1310124 C55.2519313,18.0679097 55.4792632,18.8739049 55.8305997,19.549022 C56.1819362,20.2241392 56.6882665,20.7408027 57.3496058,21.0990282 C58.010945,21.4572536 58.8996063,21.6363636 60.0156163,21.6363636 C60.9938473,21.6363636 61.7895092,21.484809 62.4026258,21.1816952 C63.0157424,20.8785813 63.4910729,20.4583616 63.8286315,19.9210235 C64.16619,19.3836853 64.3969664,18.7568002 64.5209675,18.0403494 C64.6449687,17.3238985 64.7069683,16.5661253 64.7069683,15.767007 L61.7309565,15.767007 C61.7309565,16.5661253 61.6827345,17.2102325 61.5862892,17.699348 C61.4898439,18.1884635 61.3589558,18.5673501 61.193621,18.8360192 C61.0282862,19.1046883 60.831954,19.2837983 60.6046187,19.3733547 C60.3772833,19.462911 60.1327292,19.5076885 59.8709491,19.5076885 C59.5540574,19.5076885 59.275059,19.4422445 59.0339458,19.3113544 C58.7928325,19.1804643 58.5930559,18.925577 58.4346101,18.5466847 C58.2761642,18.1677924 58.1590538,17.6339068 58.0832753,16.9450117 C58.0074969,16.2561166 57.9696082,15.3536776 57.9696082,14.2376676 C57.9696082,13.1905471 57.9971636,12.3053302 58.0522752,11.5819904 C58.1073868,10.8586506 58.2038307,10.2730986 58.3416097,9.82531677 C58.4793887,9.37753497 58.668832,9.05375915 58.9099453,8.85397958 C59.1510586,8.65420001 59.4576123,8.55431172 59.8296156,8.55431172 C60.5047328,8.55431172 60.96973,8.7988658 61.2246211,9.2879813 C61.4795123,9.7770968 61.606956,10.558981 61.606956,11.6336573 L61.606956,11.6336573 Z" id="PUBLIC" fill="#FFFFFF" sketch:type="MSShapeGroup"></path>
        </g>
    </g>
</svg>