<?xml version="1.0" encoding="UTF-8" standalone="no"?>
<svg width="75px" height="45px" viewBox="0 0 75 45" version="1.1" xmlns="http://www.w3.org/2000/svg" xmlns:xlink="http://www.w3.org/1999/xlink" xmlns:sketch="http://www.bohemiancoding.com/sketch/ns">
    <!-- Generator: Sketch 3.4.2 (15855) - http://www.bohemiancoding.com/sketch -->
    <title>public</title>
    <desc>Created with Sketch.</desc>
    <defs></defs>
    <g id="Page-1" stroke="none" stroke-width="1" fill="none" fill-rule="evenodd" sketch:type="MSPage">
        <g id="public" sketch:type="MSLayerGroup">
            <rect id="Rectangle-2" fill="#FFFEFE" sketch:type="MSShapeGroup" x="0" y="0" width="75" height="45"></rect>
            <rect id="Rectangle-3" fill="#75C05F" sketch:type="MSShapeGroup" x="0" y="15" width="75" height="30"></rect>
            <path d="M8.64312954,29.2803543 L8.64312954,24.4753352 L9.97170624,24.4753352 C10.7688562,24.4753352 11.3371861,24.6820006 11.676713,25.0953377 C12.0162399,25.5086747 12.1860007,26.1139092 12.1860007,26.9110592 C12.1860007,27.7229712 11.9904067,28.3208248 11.5992127,28.7046377 C11.2080187,29.0884507 10.6950456,29.2803543 10.060278,29.2803543 L8.64312954,29.2803543 Z M5.45454545,22.128183 L5.45454545,37.9382458 L8.64312954,37.9382458 L8.64312954,31.6275065 L10.3481363,31.6275065 C11.1010002,31.6275065 11.7874246,31.5315547 12.4074302,31.3396482 C13.0274357,31.1477417 13.5551707,30.8598863 13.9906508,30.4760733 C14.4261309,30.0922604 14.7656526,29.5977395 15.0092262,28.992496 C15.2527998,28.3872525 15.3745848,27.6786853 15.3745848,26.8667733 C15.3745848,26.2762918 15.3007757,25.6968905 15.1531554,25.1285521 C15.005535,24.5602137 14.761965,24.0546215 14.4224382,23.6117604 C14.0829113,23.1688992 13.6363664,22.8109252 13.08279,22.5378275 C12.5292136,22.2647298 11.8464796,22.128183 11.0345676,22.128183 L5.45454545,22.128183 Z M20.3595666,22.128183 L17.1709825,22.128183 L17.1709825,33.1553697 C17.1709825,34.2182363 17.3112198,35.0818026 17.5916985,35.7460942 C17.8721772,36.4103859 18.2486035,36.923359 18.7209887,37.2850289 C19.1933739,37.6466988 19.7321801,37.8865783 20.3374236,38.0046746 C20.9426672,38.1227709 21.5700443,38.1818182 22.219574,38.1818182 C22.8691036,38.1818182 23.4964808,38.11539 24.1017243,37.9825317 C24.7069678,37.8496733 25.2457741,37.5913416 25.7181593,37.2075286 C26.1905445,36.8237156 26.5669708,36.3033616 26.8474495,35.646451 C27.1279282,34.9895403 27.2681654,34.1591882 27.2681654,33.1553697 L27.2681654,22.128183 L24.0795814,22.128183 L24.0795814,33.1553697 C24.0795814,33.5539447 24.0537482,33.9192996 24.002081,34.2514454 C23.9504139,34.5835913 23.8544621,34.8714467 23.7142228,35.1150203 C23.5739834,35.3585939 23.3857703,35.5504975 23.1495777,35.6907369 C22.9133851,35.8309762 22.6033869,35.9010948 22.219574,35.9010948 C21.850523,35.9010948 21.5442154,35.8309762 21.3006418,35.6907369 C21.0570681,35.5504975 20.8651645,35.3585939 20.7249252,35.1150203 C20.5846858,34.8714467 20.488734,34.5835913 20.4370669,34.2514454 C20.3853998,33.9192996 20.3595666,33.5539447 20.3595666,33.1553697 L20.3595666,22.128183 Z M32.8952926,35.5910936 L32.8952926,30.8303604 L34.2681552,30.8303604 C34.6224441,30.8303604 34.947204,30.867265 35.2424448,30.9410752 C35.5376855,31.0148853 35.7923268,31.1440512 36.0063764,31.3285767 C36.2204259,31.5131022 36.3901868,31.7566721 36.5156641,32.0592939 C36.6411414,32.3619156 36.7038792,32.7420324 36.7038792,33.1996556 C36.7038792,34.1149019 36.4676901,34.742279 35.9953049,35.0818059 C35.5229197,35.4213327 34.9029235,35.5910936 34.1352975,35.5910936 L32.8952926,35.5910936 Z M32.8952926,28.6160659 L32.8952926,24.4753352 L34.0467258,24.4753352 C34.8438758,24.4753352 35.4269675,24.6303343 35.7960184,24.9403371 C36.1650693,25.2503398 36.349592,25.7817652 36.349592,26.5346291 C36.349592,27.287493 36.1466171,27.8226088 35.740661,28.1399926 C35.334705,28.4573764 34.6888756,28.6160659 33.8031534,28.6160659 L32.8952926,28.6160659 Z M29.7067085,22.128183 L29.7067085,37.9382458 L35.0874442,37.9382458 C36.0174525,37.9382458 36.7961383,37.8127704 37.4235249,37.5618157 C38.0509114,37.3108611 38.5601941,36.9750298 38.9513881,36.5543117 C39.3425821,36.1335937 39.6193661,35.6427633 39.7817485,35.0818059 C39.9441309,34.5208485 40.0253209,33.9303758 40.0253209,33.3103703 C40.0253209,32.2475036 39.7669891,31.3986992 39.2503178,30.7639316 C38.7336465,30.129164 38.0324603,29.7527377 37.1467381,29.6346414 L37.1467381,29.5903555 C37.9438881,29.368925 38.5417416,28.9519037 38.9403166,28.3392791 C39.3388916,27.7266546 39.5381761,26.9922543 39.5381761,26.1360561 C39.5381761,25.3831922 39.4274625,24.7484341 39.2060319,24.2317628 C38.9846014,23.7150915 38.6746033,23.3017607 38.2760283,22.9917579 C37.8774532,22.6817551 37.4013847,22.4603279 36.8478083,22.3274696 C36.2942319,22.1946112 35.6926879,22.128183 35.0431583,22.128183 L29.7067085,22.128183 Z M42.4417211,37.9382458 L51.2767561,37.9382458 L51.2767561,35.3253783 L45.6303051,35.3253783 L45.6303051,22.128183 L42.4417211,22.128183 L42.4417211,37.9382458 Z M53.2724403,37.9382458 L56.4610244,37.9382458 L56.4610244,22.128183 L53.2724403,22.128183 L53.2724403,37.9382458 Z M66.0074528,27.4646328 L69.1960369,27.4646328 C69.1960369,26.8889133 69.1554419,26.2726075 69.0742507,25.6156969 C68.9930595,24.9587862 68.7900846,24.3461709 68.4653197,23.7778325 C68.1405549,23.209494 67.6497245,22.7408064 66.9928139,22.3717554 C66.3359032,22.0027045 65.4391229,21.8181818 64.3024461,21.8181818 C63.1067211,21.8181818 62.154584,22.0211568 61.4460062,22.4271128 C60.7374284,22.8330688 60.1949317,23.3977083 59.8184997,24.1210481 C59.4420678,24.8443879 59.1984978,25.7116446 59.0877825,26.7228441 C58.9770672,27.7340437 58.9217104,28.8374894 58.9217104,30.0332144 C58.9217104,31.2437015 58.9770672,32.3508376 59.0877825,33.3546562 C59.1984978,34.3584747 59.4420678,35.2220409 59.8184997,35.9453807 C60.1949317,36.6687206 60.7374284,37.2222886 61.4460062,37.6061016 C62.154584,37.9899146 63.1067211,38.1818182 64.3024461,38.1818182 C65.3505507,38.1818182 66.2030456,38.0194382 66.8599562,37.6946734 C67.5168669,37.3699086 68.0261495,36.9196732 68.3878194,36.3439537 C68.7494893,35.7682343 68.9967498,35.0965717 69.1296081,34.3289457 C69.2624664,33.5613198 69.3288946,32.74942 69.3288946,31.8932218 L66.1403105,31.8932218 C66.1403105,32.74942 66.0886442,33.4395348 65.9853099,33.9635872 C65.8819756,34.4876395 65.7417384,34.8935894 65.5645939,35.1814491 C65.3874495,35.4693089 65.1770936,35.6612125 64.93352,35.7571657 C64.6899464,35.8531189 64.4279242,35.9010948 64.1474455,35.9010948 C63.8079186,35.9010948 63.5089918,35.8309762 63.2506562,35.6907369 C62.9923205,35.5504975 62.7782742,35.2774039 62.6085108,34.8714479 C62.4387474,34.4654919 62.3132719,33.8934715 62.2320807,33.1553697 C62.1508895,32.4172678 62.1102945,31.4503689 62.1102945,30.2546439 C62.1102945,29.132729 62.1398181,28.1842824 62.1988663,27.4092754 C62.2579144,26.6342685 62.3612472,26.0068913 62.5088675,25.5271251 C62.6564879,25.0473589 62.8594629,24.7004562 63.1177985,24.4864067 C63.3761342,24.2723572 63.7045846,24.165334 64.1031596,24.165334 C64.8264994,24.165334 65.3247107,24.4273562 65.5978084,24.9514085 C65.870906,25.4754609 66.0074528,26.3131939 66.0074528,27.4646328 L66.0074528,27.4646328 Z" id="PUBLIC" fill="#FFFFFF" sketch:type="MSShapeGroup"></path>
        </g>
    </g>
</svg>